Description

Sinopse e detalhes

Kuki Gallmann (Kim Basinger) uma bela e exploradora mulher, que teve a coragem de deixar sua confortável mas monótona casa na Itália para partir para as desventuras do continente africano, juntamente com seu marido Paolo (Vincent Pérez) e seu filho Emanuele (Eva Marie Saint). Embora inicialmente tenha medo do incrível poder da natureza e da sensação de liberdade que transmite o território queniano, Kuki logo descobre que viver na África rural não um conto de fadas. Elefantes selvagens e leões famintos rondam suas terras, tempestades destroem tudo a seu alcance e nativos são mortos por terem se arriscado demais junto aos animais.


Format : Matroska
Format version : Version 2
File size : 655 MiB
Duration : 1h 54mn
Overall bit rate : 799 Kbps
Encoded date : UTC 2013-05-07 09:43:04
Writing application : mkvmerge v5.8.0 ('No Sleep / Pillow') built on Sep 2 2012 15:37:04
Writing library : libebml v1.2.3 + libmatroska v1.3.0

Video
ID : 1
Format : AVC
Format/Info : Advanced Video Codec
Format profile : High@L4.1
Format settings, CABAC : Yes
Format settings, ReFrames : 4 frames
Muxing mode : Header stripping
Codec ID : V_MPEG4/ISO/AVC
Duration : 1h 54mn
Bit rate : 592 Kbps
Width : 720 pixels
Height : 304 pixels
Display aspect ratio : 2.35:1
Frame rate mode : Constant
Frame rate : 23.976 fps
Color space : YUV
Chroma subsampling : 4:2:0
Bit depth : 8 bits
Scan type : Progressive
Bits/(Pixel*Frame) : 0.113
Stream size : 485 MiB (74%)
Title : África dos Meus sonhos ( by fantasma )
Writing library : x264 core 130 r2273 b3065e6
Encoding settings : cabac=1 / ref=3 / deblock=1:0:0 / analyse=0x3:0x113 / me=hex / subme=7 / psy=1 / psy_rd=1.00:0.00 / mixed_ref=1 / me_range=16 / chroma_me=1 / trellis=1 / 8x8dct=1 / cqm=0 / deadzone=21,11 / fast_pskip=1 / chroma_qp_offset=-2 / threads=3 / lookahead_threads=1 / sliced_threads=0 / nr=0 / decimate=1 / interlaced=0 / bluray_compat=0 / constrained_intra=0 / bframes=3 / b_pyramid=2 / b_adapt=1 / b_bias=0 / direct=1 / weightb=1 / open_gop=0 / weightp=2 / keyint=240 / keyint_min=23 / scenecut=40 / intra_refresh=0 / rc_lookahead=40 / rc=crf / mbtree=1 / crf=23.0 / qcomp=0.60 / qpmin=0 / qpmax=69 / qpstep=4 / vbv_maxrate=62500 / vbv_bufsize=78125 / crf_max=0.0 / nal_hrd=none / ip_ratio=1.40 / aq=1:1.00
Language : Portuguese
Default : Yes
Forced : No

Audio
ID : 2
Format : AC-3
Format/Info : Audio Coding 3
Format profile : Dolby Digital
Mode extension : CM (complete main)
Format settings, Endianness : Big
Muxing mode : Header stripping
Codec ID : A_AC3
Duration : 1h 54mn
Bit rate mode : Constant
Bit rate : 192 Kbps
Channel(s) : 2 channels
Channel positions : Front: L R
Sampling rate : 48.0 KHz
Bit depth : 16 bits
Compression mode : Lossy
Stream size : 157 MiB (24%)
Title : by fantasma
Language : Portuguese
Default : Yes
Forced : No

Text #1
ID : 3
Format : VobSub
Muxing mode : zlib
Codec ID : S_VOBSUB
Codec ID/Info : The same subtitle format used on DVDs
Title : by fantasma
Language : English
Default : No
Forced : No

Text #2
ID : 4
Format : VobSub
Muxing mode : zlib
Codec ID : S_VOBSUB
Codec ID/Info : The same subtitle format used on DVDs
Title : by fantasma
Language : Spanish
Default : No
Forced : No

Text #3
ID : 5
Format : VobSub
Muxing mode : zlib
Codec ID : S_VOBSUB
Codec ID/Info : The same subtitle format used on DVDs
Title : by fantasma
Language : Portuguese
Default : No
Forced : No

Text #4
ID : 6
Format : VobSub
Muxing mode : zlib
Codec ID : S_VOBSUB
Codec ID/Info : The same subtitle format used on DVDs
Title : by fantasma
Language : Chinese
Default : No
Forced : No

Text #5
ID : 7
Format : VobSub
Muxing mode : zlib
Codec ID : S_VOBSUB
Codec ID/Info : The same subtitle format used on DVDs
Title : by fantasma
Language : Korean
Default : No
Forced : No

Text #6
ID : 8
Format : VobSub
Muxing mode : zlib
Codec ID : S_VOBSUB
Codec ID/Info : The same subtitle format used on DVDs
Title : by fantasma
Language : Thai
Default : No
Forced : No

Text #7
ID : 9
Format : UTF-8
Codec ID : S_TEXT/UTF8
Codec ID/Info : UTF-8 Plain Text
Title : Credito
Language : Portuguese
Default : Yes
Forced : No

Menu
00:00:00.000 : en:Chapter 01
00:03:17.434 : en:Chapter 02
00:06:43.335 : en:Chapter 03
00:11:01.269 : en:Chapter 04
00:16:12.336 : en:Chapter 05
00:19:50.536 : en:Chapter 06
00:23:41.603 : en:Chapter 07
00:25:44.537 : en:Chapter 08
00:26:34.637 : en:Chapter 09
00:35:09.770 : en:Chapter 10
00:36:19.704 : en:Chapter 11
00:42:56.138 : en:Chapter 12
00:45:36.705 : en:Chapter 13
00:47:50.872 : en:Chapter 14
00:55:23.273 : en:Chapter 15
00:59:36.640 : en:Chapter 16
01:05:24.707 : en:Chapter 17
01:07:50.007 : en:Chapter 18
01:10:33.507 : en:Chapter 19
01:12:25.208 : en:Chapter 20
01:17:56.642 : en:Chapter 21
01:22:17.309 : en:Chapter 22
01:25:12.676 : en:Chapter 23
01:28:09.709 : en:Chapter 24
01:30:11.209 : en:Chapter 25
01:37:29.843 : en:Chapter 26
01:42:27.777 : en:Chapter 27
01:49:51.944 : en:Chapter 28